<svg width="26" height="26" viewBox="0 0 26 26" fill="none" xmlns="http://www.w3.org/2000/svg">
<path d="M16.9579 25.9929C16.9579 25.7549 16.9579 25.5962 16.9579 25.4375C16.9579 22.724 16.9738 20.0104 16.9579 17.3128C16.9579 16.8367 17.1165 16.7415 17.5448 16.7574C18.338 16.7891 19.147 16.7732 19.9402 16.7732C20.5589 16.7732 20.7334 16.5987 20.7968 16.0115C20.892 15.1705 21.0031 14.3453 21.1141 13.5043C21.2093 12.8219 20.9555 12.5045 20.2416 12.5045C19.2898 12.5045 18.3539 12.4887 17.4021 12.5204C17.0531 12.5204 16.942 12.4093 16.9579 12.0602C16.9896 11.3303 16.9579 10.6162 16.9738 9.88621C16.9896 8.79126 17.5607 8.21999 18.6394 8.18826C19.1788 8.17239 19.7023 8.18826 20.2416 8.18826C20.7968 8.17239 21.0189 7.96609 21.0189 7.39482C21.0348 6.66486 21.0348 5.95077 21.0189 5.22081C21.0031 4.63366 20.7968 4.42737 20.194 4.42737C19.2105 4.42737 18.2428 4.37977 17.2593 4.45911C14.6101 4.68127 12.9286 6.50617 12.8334 9.31493C12.8017 10.3464 12.8334 11.3779 12.8334 12.5045C12.2782 12.5045 11.7547 12.5045 11.2312 12.5045C9.89872 12.4887 9.8194 12.568 9.83527 13.901C9.83527 14.5675 9.85113 15.234 9.86699 15.9004C9.88286 16.5828 10.0732 16.7732 10.7395 16.7732C11.3264 16.7732 11.9292 16.7732 12.5162 16.7732C12.7541 16.7732 12.8493 16.8684 12.8493 17.1065C12.8334 19.9946 12.8334 22.8827 12.8334 25.7708C12.8334 25.8343 12.8176 25.8819 12.8017 25.9771C12.6272 25.9771 12.4686 25.9929 12.3099 25.9929C9.40696 25.9929 6.50397 26.0088 3.60098 25.9929C1.41184 25.9929 0 24.533 0 22.3431C0 16.0591 0 9.791 0 3.50699C0 1.49166 1.49115 0 3.5058 0C9.85113 0 16.2123 0 22.5577 0C24.4613 0 25.9683 1.49166 25.9841 3.45938C26 7.5535 25.9841 11.6635 26 15.7576C26 17.9475 26 20.1374 26 22.3273C26 24.5489 24.5564 25.9929 22.3197 25.9929C20.7334 25.9929 19.147 25.9929 17.5766 25.9929C17.3862 25.9929 17.2117 25.9929 16.9579 25.9929Z" fill="white"/>
</svg>
