<svg width="27" height="27" viewBox="0 0 27 27" fill="none" xmlns="http://www.w3.org/2000/svg">
<path d="M13.9519 21.0415C12.7711 21.0258 11.5903 21.0101 10.4095 20.9943C9.77979 20.9786 9.16579 20.9472 8.55178 20.7587C7.22931 20.3817 6.42638 19.502 6.143 18.1825C6.03279 17.6641 5.96982 17.13 5.96982 16.5959C5.95407 14.2238 5.95407 11.8518 5.96982 9.47971C5.96982 8.85136 6.01705 8.223 6.20597 7.61035C6.59956 6.29081 7.49696 5.52107 8.81943 5.2226C9.55938 5.06551 10.2993 5.0498 11.0393 5.0498C13.1175 5.0498 15.1799 5.04981 17.2581 5.06551C17.8878 5.06551 18.5333 5.09693 19.163 5.25402C20.643 5.61532 21.5089 6.55786 21.7765 8.01879C21.871 8.55289 21.9182 9.11841 21.9182 9.66822C21.9497 11.3962 21.9497 13.1399 21.9497 14.8679C21.9497 15.7319 21.9182 16.5959 21.8552 17.4441C21.808 18.1825 21.6191 18.8894 21.1782 19.502C20.5957 20.3189 19.7928 20.7273 18.8324 20.8844C17.935 21.0258 17.0219 21.0258 16.1088 21.0258C15.3845 21.0258 14.6603 21.0258 13.9361 21.0258C13.9519 21.0258 13.9519 21.0258 13.9519 21.0415ZM13.9519 18.0254C16.7228 18.0254 18.9584 15.7947 18.9584 13.0142C18.9584 10.2495 16.7228 8.01879 13.9519 8.01879C11.181 8.01879 8.94537 10.2495 8.94537 13.0142C8.94537 15.779 11.181 18.0254 13.9519 18.0254ZM19.163 8.99274C19.8085 8.99274 20.3281 8.47434 20.3281 7.84599C20.3281 7.20192 19.8085 6.66782 19.163 6.66782C18.5176 6.66782 17.9823 7.18621 17.9823 7.83028C17.998 8.47434 18.5018 8.99274 19.163 8.99274Z" fill="white"/>
<path d="M13.9471 10.1001C15.5655 10.1001 16.9 11.4204 16.9 13.0246C16.9 14.6715 15.5797 15.9918 13.9613 15.9918C12.3287 15.9918 11.0084 14.6715 11.0084 13.0246C10.9942 11.4204 12.3287 10.1001 13.9471 10.1001Z" fill="white"/>
<path d="M26.9523 17.9629C26.9523 14.6122 26.9523 11.2615 26.9523 7.9108C26.9523 7.1962 26.9681 6.48159 26.9364 5.75111C26.9364 5.63995 26.9364 5.52879 26.9205 5.41763C26.9205 4.78243 26.9205 4.13135 26.9205 3.49615C26.9205 1.52702 25.4128 0.0343021 23.4924 0.0343021C22.8734 0.0343021 22.2545 0.0343021 21.6355 0.0343021C21.6196 0.0343021 21.6197 0.0343021 21.6038 0.0343021C21.6038 0.0343021 21.5879 0.0343021 21.572 0.0343021C20.9213 -0.013338 20.2548 0.00254012 19.6041 0.00254012C15.2713 0.00254012 10.9386 0.00254012 6.60583 0.00254012C6.52648 0.00254012 6.463 0.00254012 6.38364 0.00254012C6.36777 0.00254012 6.3519 0.00254012 6.32016 0.00254012C6.22493 0.00254012 6.14558 0.0184211 6.05036 0.0184211C5.51075 0.0184211 4.97114 0.0184211 4.43153 0.0184211C2.41593 0.0184211 0.92407 1.51114 0.92407 3.52791V5.24295C0.908199 5.33823 0.908203 5.43351 0.908203 5.52879C0.908203 5.56055 0.908203 5.57643 0.908203 5.60819C0.908203 5.67171 0.908203 5.73523 0.908203 5.81463C0.908203 10.6104 0.908203 15.4221 0.908203 20.2178C0.908203 20.3131 0.908203 20.4084 0.908203 20.5037C0.908203 20.5672 0.908199 20.6148 0.92407 20.6783C0.92407 20.6942 0.92407 20.7101 0.92407 20.726C0.92407 20.7577 0.92407 20.7736 0.92407 20.8054C0.92407 20.8054 0.92407 20.8213 0.92407 20.8371V22.4093C0.92407 24.6007 2.33658 26.0458 4.52675 26.0617C5.06636 26.0617 5.5901 26.0617 6.12971 26.0617H6.14558C6.27255 26.0776 6.39951 26.0776 6.52648 26.0776C9.00233 26.1093 11.4623 26.0776 13.9382 26.0776H17.2552C18.3661 26.0776 19.4771 26.0776 20.588 26.0776C20.715 26.0776 20.8261 26.0776 20.9531 26.0776C21.0324 26.0776 21.0959 26.0776 21.1753 26.0776C21.2388 26.0776 21.3181 26.0776 21.3816 26.0776C21.4292 26.0776 21.4768 26.0776 21.5244 26.0776C21.5403 26.0776 21.5562 26.0776 21.572 26.0776C21.6197 26.0776 21.6673 26.0776 21.699 26.0617C22.2227 26.0617 22.7465 26.0617 23.2861 26.0617C25.5239 26.0617 26.9681 24.6325 26.9681 22.3934C26.9681 21.8693 26.9681 21.3294 26.9681 20.7895C26.9681 20.7419 26.9681 20.6942 26.984 20.6466C26.984 20.5672 26.984 20.4878 26.9999 20.4084C26.9681 19.5985 26.9523 18.7886 26.9523 17.9629ZM19.3184 22.6633C18.8581 22.7586 18.382 22.8063 17.9059 22.8221C17.763 22.8221 17.6043 22.838 17.4615 22.838C16.287 22.8698 15.0967 22.8539 13.9223 22.8539H13.7636C12.6368 22.8539 11.4941 22.8698 10.3672 22.8539C9.55781 22.838 8.73253 22.7904 7.95486 22.5363C6.01861 21.9329 4.8283 20.6466 4.3363 18.6775C4.16172 17.9629 4.11411 17.2324 4.11411 16.5178C4.09824 14.1993 4.09824 11.8808 4.11411 9.54644C4.11411 8.67304 4.19347 7.78376 4.46327 6.94212C5.06636 5.10003 6.33603 3.94079 8.19292 3.46439C8.78014 3.30559 9.36736 3.24207 9.97045 3.22619C12.1289 3.21031 14.2873 3.19443 16.4458 3.19443C17.1758 3.19443 17.9059 3.22619 18.6359 3.28971C20.2706 3.44851 21.6673 4.08371 22.6513 5.46527C23.2067 6.22752 23.5083 7.10091 23.6194 8.02196C23.6987 8.75244 23.7463 9.4988 23.7463 10.2452C23.7622 12.3096 23.7463 14.3898 23.7305 16.4543C23.7305 17.2959 23.667 18.1375 23.4289 18.9474C22.81 21.0118 21.4292 22.2505 19.3184 22.6633Z" fill="white"/>
</svg>
