<svg width="18" height="18" viewBox="0 0 18 18" fill="none" xmlns="http://www.w3.org/2000/svg">
<path d="M13.7534 0.559569L8.87543 5.62353L3.81147 0.745542C3.19008 0.146973 2.20072 0.16548 1.60215 0.78687L0.518151 1.91219C-0.080419 2.53359 -0.061912 3.52295 0.559478 4.12152L5.62344 8.99951L0.745452 14.0635C0.146882 14.6849 0.165389 15.6742 0.78678 16.2728L1.9121 17.3568C2.53349 17.9554 3.52286 17.9368 4.12143 17.3155L8.99942 12.2515L14.0634 17.1295C14.6848 17.7281 15.6741 17.7095 16.2727 17.0882L17.3567 15.9628C17.9553 15.3414 17.9368 14.3521 17.3154 13.7535L12.2514 8.87552L17.1294 3.81156C17.728 3.19017 17.7095 2.20081 17.0881 1.60224L15.9627 0.518241C15.3414 -0.0803288 14.352 -0.0618218 13.7534 0.559569Z" fill="#0044FF"/>
</svg>
