<svg width="26" height="26" viewBox="0 0 26 26" fill="none" xmlns="http://www.w3.org/2000/svg">
<path d="M0.0175711 13.0134C0.0175711 10.6213 -0.0198496 8.22836 0.0286667 5.83713C0.0723966 3.6859 0.932635 1.93944 2.84522 0.812743C3.89931 0.191678 5.07131 0.0145104 6.26551 0.0105975C10.7577 -0.00353249 15.2502 -0.00353249 19.7426 0.0105975C20.9122 0.014293 22.0631 0.184287 23.0998 0.781875C24.8461 1.78858 25.7482 3.33418 25.9359 5.31607C25.9759 5.73953 25.9955 6.16647 25.9957 6.59189C26.0001 10.9385 26.0027 15.2851 25.9955 19.6314C25.9933 20.9253 25.8108 22.1866 25.1 23.3081C24.0599 24.9495 22.5287 25.7738 20.6183 25.9369C20.147 25.9771 19.6723 25.9951 19.1991 25.9956C14.9201 25.9999 10.6411 26.0034 6.36211 25.9943C5.37503 25.9921 4.39013 25.896 3.47463 25.4941C1.38125 24.5754 0.290176 22.9294 0.0630414 20.6842C0.0214872 20.2729 0.00451757 19.8577 0.00342976 19.4443C-0.00222684 17.3006 0.000818796 15.157 0.000818796 13.0132C0.0064754 13.0134 0.0121321 13.0134 0.0175711 13.0134ZM10.823 13.5745C10.8443 13.5243 10.8702 13.4921 10.8698 13.4601C10.8585 12.3836 10.8497 11.3072 10.8202 10.2313C10.8182 10.1605 10.6557 10.0376 10.5647 10.0348C10.1155 10.0205 9.65947 9.99308 9.21651 10.052C6.62253 10.3965 4.55808 12.2534 3.98089 14.7649C3.41915 17.2096 4.23544 19.7403 6.57662 21.3577C8.57536 22.7387 10.769 22.8068 12.9109 21.669C14.9967 20.561 16.1365 18.7599 16.2116 16.3902C16.2775 14.3073 16.2261 12.2204 16.2266 10.1355C16.2266 10.0105 16.2266 9.88547 16.2266 9.70917C16.3813 9.79613 16.4826 9.84982 16.581 9.90873C17.7221 10.5922 18.9604 10.9476 20.2858 11.0289C20.5917 11.0476 20.7114 10.965 20.6999 10.6413C20.6779 10.0261 20.7051 9.40919 20.6892 8.79355C20.6798 8.43357 20.627 8.07488 20.593 7.71011C20.5067 7.6999 20.4492 7.68924 20.3914 7.68664C17.9908 7.57881 16.3064 5.59606 16.0456 3.36331C16.0177 3.12418 15.9309 3.07267 15.7149 3.07484C14.8731 3.08375 14.0312 3.07832 13.1894 3.07853C12.7343 3.07875 12.7338 3.07919 12.7338 3.54634C12.7336 7.75207 12.7399 11.9578 12.7295 16.1635C12.7264 17.3422 12.1699 18.2239 11.0902 18.6891C10.0332 19.1443 9.03681 19.0025 8.17004 18.1752C7.33112 17.3746 7.06309 16.1431 7.53193 15.0757C7.98751 14.0386 9.04181 13.4119 10.1984 13.4967C10.4077 13.5117 10.6157 13.548 10.823 13.5745Z" fill="white"/>
</svg>
